<svg enable-background="new 0 0 128 128" viewBox="0 0 128 128" xmlns="http://www.w3.org/2000/svg"><path transform="scale(0.061,-0.061) translate(-250,-1750)" d="M1325 -340q-115 0 -164.5 32.5t-49.5 114.5q0 32 5 70.5t10.5 72.5t5.5 54v220q-34 -9 -69.5 -14t-71.5 -5q-136 0 -251.5 62t-191 169t-92.5 241q-90 120 -90 266q0 108 48.5 200.5t132 155.5t188.5 81q15 99 100.5 180.5t217 130.5t282.5 49q136 0 256.5 -46 t209 -127.5t128.5 -189.5q149 -82 227 -213.5t78 -299.5q0 -136 -58 -246t-165.5 -184.5t-256.5 -103.5l-243 -300v-52q0 -27 3.5 -56.5t6.5 -57.5t3 -52q0 -85 -41.5 -118.5t-157.5 -33.5zM1325 -260q77 0 98 14.5t21 57.5q0 29 -3 68t-6.5 73t-3.5 48v64l207 249 q-31 0 -60 5.5t-54 12.5l-104 -123q-1 34 -2 63.5t-1 54.5q0 69 9 123l31 200l-115 -28l-46 -271l-205 226q-19 -15 -43 -28.5t-55 -26.5l219 -242v-276q0 -20 -5.5 -60t-10.5 -79t-5 -58q0 -40 30 -53.5t104 -13.5zM1262 616q-119 0 -229.5 34.5t-193.5 96.5l48 64 q73 -55 170.5 -85t204.5 -30q137 0 249 45.5t179 121t67 165.5h80q0 -114 -77.5 -207.5t-208 -149t-289.5 -55.5zM803 595q80 0 149 29.5t108 72.5l221 -67l309 86q47 -32 104.5 -50t117.5 -18q91 0 165 38t118.5 103.5t44.5 146.5q0 76 -34.5 149t-95.5 134t-143 99 q-37 107 -115.5 183.5t-186 117.5t-230.5 41q-103 0 -197.5 -26t-169 -72.5t-117.5 -108t-43 -131.5q0 -34 14.5 -62.5t40.5 -50.5l-55 -59q-34 29 -54 65.5t-25 81.5q-81 -18 -145 -70t-101 -125.5t-37 -158.5q0 -102 48.5 -180.5t129.5 -123t179 -44.5z"/></svg>
