<svg viewBox="0 0 562 128" xmlns="http://www.w3.org/2000/svg"><path d="m32 24.66s2.43-7.3 8.16-11.88 58.85 15.04 58.85 15.04 9.28 3.31 14.77 12.08c3.69 5.9 5.75 14.62 1.84 25.15-9.32 25.08-33.5 22.18-39.8 20.75-2.96-.67-10.17-2.58-10.17-2.58s-16.47 13.6-36.29 3.17c-15.09-7.94-13.22-19.81-13.22-19.81s-10.16-10.16-5.76-24.31c5.3-17.04 21.62-17.61 21.62-17.61z" fill="#5b9821"/><path d="m66.37 55.01c13.75-2.29 18.04-8.16 21.77-13.6 4.11-6 3.01-11.03 5.87-11.17s5.14 5.02 2 14.03c-4.44 12.74-13.57 14.61-13.75 18.04-.14 2.72 9.72 2.91 18.62-1.43 12.89-6.3 12.89-21.05 12.89-21.05s-2.29-4.73-6.73-8.02-7.74-5.01-7.74-5.01-5.3-19.9-29.35-23.2-33.94 13.47-33.94 13.47.86 5.44 5.01 11.74c3.31 5.03 6.73 4.87 6.44 7.73-.19 1.86-6.16 2.43-12.46-.29-5.74-2.48-7.16-5.87-8.73-5.87s-14.59 7.25-9.16 22.62c4.3 12.17 18.51 14.45 21.05 14.89 7.45 1.29 11.74-3.58 6.44-7.45s-11.17-6.16-9.88-10.02c1.39-4.18 6.35.18 12.31 2.76 5.89 2.55 13.02 2.89 19.34 1.83z" fill="#8bc02b"/><path d="m39.03 70.97s3.3-.19 4.66-.58 3.2-1.55 3.2-1.55 12.75 13.34 14.07 14.46c1.29 1.09 2.81-15.53 2.81-15.53s2.91.45 5.63.02c3.58-.57 6.02-1.71 6.02-1.71s-1.74 10.23-2.42 14.11c-.43 2.49-.58 9.41-.58 9.41l-9.32 7.76-7.09-4.76s-.02-1.87-1.07-3.14c-3.26-3.94-15.91-18.49-15.91-18.49z" fill="#6d4b41"/><path d="m71.54 93.78 7.09-8.54s2.52.19 4.37.19c1.84 0 5.05-.39 5.05-.39s-5.82 7.86-8.93 11.74-7.18 8.74-7.18 8.74l-3.88-11.26z" fill="#6d4b41"/><path d="m66.5 86.98c-2.9.26-10.48 5.63-10.48 5.63s.39 9.12.1 14.27-2.32 13.56-.45 15.69c1.62 1.84 15.24 2.19 17.27.05 2.04-2.14.06-10.98.06-16.71s-.58-16.31-.58-16.31-2.62-2.91-5.92-2.62z" fill="#865b50"/><g fill="#6d4b41"><path d="m174.38 55.61q.54-5.04 7.11-5.04 3.51 0 5.22.54 1.71.54 2.34 1.89.72 1.35.81 2.43.18.99.18 3.06v31.5q0 2.07-.18 3.15-.09.99-.72 2.34-1.26 2.34-6.21 2.34-4.86 0-6.57-1.17-1.62-1.26-1.89-3.6-3.33 4.77-11.16 4.77-7.74 0-14.4-7.11-6.66-7.11-6.66-16.47 0-9.45 6.66-16.47 6.75-7.11 14.76-7.11 3.06 0 5.58 1.08 2.52 1.08 3.51 2.07.99.9 1.62 1.8zm-16.38 18.72q0 2.97 2.34 5.4 2.34 2.34 5.67 2.34 3.33 0 5.49-2.43 2.25-2.43 2.25-5.31 0-2.97-2.16-5.49-2.07-2.52-5.67-2.52-3.51 0-5.76 2.52-2.16 2.52-2.16 5.49z"/><path d="m218.30006 97.82q-9.09 0-15.12-6.84-5.94-6.93-5.94-16.83v-15.75q0-2.16.09-3.15.18-.99.81-2.34 1.26-2.43 7.02-2.43 6.3 0 7.38 3.42.54 1.44.54 4.59v15.75q0 3.69 2.07 5.76 2.16 2.07 5.67 2.07 3.6 0 5.76-2.16 2.25-2.16 2.25-5.67v-15.93q0-2.07.09-3.06.18-1.08.9-2.43 1.17-2.34 6.93-2.34 5.67 0 6.93 2.43.63 1.35.72 2.43.18.99.18 3.06v31.86q0 1.98-.18 3.06-.09.99-.81 2.25-1.35 2.34-6.93 2.34-5.49 0-6.75-2.16-.9-1.53-.9-3.69-.36.63-1.62 1.8-1.26 1.17-2.43 1.98-3.06 1.98-6.66 1.98z"/><path d="m279.32015 66.5-5.85-.36v12.42q0 2.43.72 3.51.81 1.08 2.88 1.08 2.16 0 3.24.18 1.17.09 2.43.81 2.07 1.17 2.07 6.03 0 5.67-2.52 6.93-1.35.63-2.43.81-.99.09-2.97.09-9.36 0-14.22-4.23-4.86-4.23-4.86-14.31v-13.32q-1.71.27-3.69.27-1.98 0-3.33-1.53-1.26-1.53-1.26-5.22 0-3.69.45-5.31.45-1.71 1.26-2.43 1.44-1.17 3.6-1.17l2.97.36v-9.27q0-2.07.09-3.06.18-.99.9-2.16 1.17-2.25 6.93-2.25 6.12 0 7.29 3.33.45 1.44.45 4.59v8.82q3.96-.36 5.94-.36 2.07 0 3.06.18 1.08.09 2.43.81 2.34 1.17 2.34 6.93 0 5.67-2.43 6.93-1.35.63-2.43.81-.99.09-3.06.09z"/><path d="m290.84009 74.33q0-10.8 7.56-17.82 7.56-7.02 17.28-7.02 9.72 0 17.19 7.02 7.47 6.93 7.47 17.73 0 7.47-3.87 13.32-3.87 5.76-9.45 8.55-5.49 2.7-11.43 2.7-5.94 0-11.52-2.88-5.58-2.97-9.45-8.64-3.78-5.76-3.78-12.96zm18.81 6.48q2.88 2.16 5.85 2.16 2.97 0 5.94-2.25 2.97-2.25 2.97-6.66 0-4.41-2.79-6.57-2.79-2.16-6.03-2.16-3.24 0-6.03 2.25-2.79 2.25-2.79 6.66 0 4.32 2.88 6.57z"/></g><g fill="#5b9821"><path d="m373.91012 50.66q6.21 0 7.29 3.42.54 1.71.54 4.5 0 2.79-.63 4.5-.54 1.62-1.8 2.34-1.89 1.08-5.49 1.08l-5.76-.36v24.12q0 3.42-.9 5.13-.81 1.62-2.61 2.16-1.71.54-4.5.54-2.79 0-4.5-.54-1.62-.63-2.34-1.89-.72-1.35-.9-2.43-.09-1.08-.09-3.15v-23.85h-3.24q-2.34-.18-3.33-1.08-1.71-1.71-1.71-6.57 0-7.38 5.31-7.38h2.97v-4.77q0-6.93 4.95-12.51 4.95-5.67 14.31-5.67 2.07 0 3.06.18 1.08.09 2.43.81 2.43 1.17 2.43 6.93 0 4.32-1.53 6.21-1.26 1.44-3.96 1.62-.81 0-2.52 0-3.33 0-3.33 2.25v4.95zm13.14 7.83q0-2.07.09-3.06.18-1.08.81-2.43 1.26-2.34 7.02-2.34 4.32 0 6.12 1.53 1.53 1.26 1.62 3.87.09.9.09 2.61v31.5q0 2.07-.18 3.15-.09.99-.81 2.34-1.17 2.34-6.93 2.34-5.67 0-6.93-2.43-.63-1.35-.81-2.34-.09-.99-.09-3.15zm14.76-16.65q-.63 1.26-2.34 1.8-1.71.54-4.59.54-2.79 0-4.5-.54-1.71-.54-2.43-1.89-.63-1.35-.81-2.34-.09-1.08-.09-3.15 0-2.07.09-3.06.18-1.08.81-2.34 1.26-2.43 7.02-2.43 5.67 0 6.84 2.43.72 1.35.81 2.43.18.99.18 3.06 0 2.07-.18 3.15-.09.99-.81 2.34z"/><path d="m442.85009 74.24 9.99 10.08q3.24 3.24 3.24 5.58 0 2.25-3.24 5.49-3.24 3.15-5.49 3.15-2.25 0-5.49-3.24l-9.9-9.99-9.99 9.99q-3.24 3.24-5.49 3.24-2.16 0-5.49-3.15-3.24-3.24-3.24-5.49 0-2.34 3.24-5.58l9.99-10.08-9.99-10.08q-3.24-3.24-3.24-5.49 0-2.34 3.24-5.58 3.33-3.24 5.49-3.24 2.25 0 5.49 3.24l9.99 10.08 9.9-10.08q3.24-3.24 5.49-3.24 2.25 0 5.49 3.24 3.24 3.24 3.24 5.58 0 2.25-3.24 5.49z"/></g><g fill="#444"><path d="m474.98005 83.15q1.53 1.53 1.53 6.3v.36q0 2.16-.18 3.24-.09.99-.9 2.43-1.35 2.61-6.84 2.61-5.4 0-7.2-1.71-1.71-1.71-1.71-6.48v-.36q0-2.07.09-3.15.18-1.08.9-2.43 1.35-2.7 6.75-2.7 5.49 0 7.56 1.89z"/><path d="m497.21001 74.33q0 3.78 2.52 5.94 2.52 2.07 5.31 2.07 2.88 0 5.31-1.62 2.52-1.71 4.05-1.71 2.7 0 6.57 4.77 2.07 2.61 2.07 4.68 0 3.42-4.95 6.39-5.13 3.6-12.6 3.6-8.37 0-16.11-6.03-3.69-2.88-6.03-7.65-2.34-4.86-2.34-10.62 0-5.85 2.34-10.53 2.34-4.77 6.03-7.65 7.47-5.94 15.93-5.94 3.42 0 6.66.99 3.24.9 4.77 1.8l1.44.9q1.62 1.08 2.52 1.71 2.34 1.8 2.34 4.14 0 2.25-1.89 5.13-3.24 4.95-6.21 4.95-1.71 0-4.86-1.98-1.62-1.53-4.68-1.53-2.97 0-5.58 2.16-2.61 2.16-2.61 6.03z"/><path d="m528.89001 58.49q0-2.07.09-3.06.18-1.08.81-2.43 1.26-2.34 7.02-2.34 4.32 0 6.12 1.53 1.53 1.26 1.62 3.87.09.9.09 2.61v31.5q0 2.07-.18 3.15-.09.99-.81 2.34-1.17 2.34-6.93 2.34-5.67 0-6.93-2.43-.63-1.35-.81-2.34-.09-.99-.09-3.15zm14.76-16.65q-.63 1.26-2.34 1.8-1.71.54-4.59.54-2.79 0-4.5-.54-1.71-.54-2.43-1.89-.63-1.35-.81-2.34-.09-1.08-.09-3.15 0-2.07.09-3.06.18-1.08.81-2.34 1.26-2.43 7.02-2.43 5.67 0 6.84 2.43.72 1.35.81 2.43.18.99.18 3.06 0 2.07-.18 3.15-.09.99-.81 2.34z"/></g></svg>