<?xml version="1.0" encoding="utf-8"?>
<svg version="1.1" xmlns="http://www.w3.org/2000/svg" xmlns:xlink="http://www.w3.org/1999/xlink" x="0px" y="0px" viewBox="0 0 562 128">

	<!-- tree -->
	<path style="fill:#5B9821;" d="M32,24.66c0,0,2.43-7.3,8.16-11.88s58.85,15.04,58.85,15.04s9.28,3.31,14.77,12.08
	c3.69,5.9,5.75,14.62,1.84,25.15C106.3,90.13,82.12,87.23,75.82,85.8c-2.96-0.67-10.17-2.58-10.17-2.58s-16.47,13.6-36.29,3.17
	c-15.09-7.94-13.22-19.81-13.22-19.81S5.98,56.42,10.38,42.27C15.68,25.23,32,24.66,32,24.66z"/>
	<path style="fill:#8BC02B;" d="M66.37,55.01c13.75-2.29,18.04-8.16,21.77-13.6c4.11-6,3.01-11.03,5.87-11.17s5.14,5.02,2,14.03
		c-4.44,12.74-13.57,14.61-13.75,18.04c-0.14,2.72,9.72,2.91,18.62-1.43c12.89-6.3,12.89-21.05,12.89-21.05s-2.29-4.73-6.73-8.02
		S99.3,26.8,99.3,26.8s-5.3-19.9-29.35-23.2S36.01,17.07,36.01,17.07s0.86,5.44,5.01,11.74c3.31,5.03,6.73,4.87,6.44,7.73
		c-0.19,1.86-6.16,2.43-12.46-0.29c-5.74-2.48-7.16-5.87-8.73-5.87s-14.59,7.25-9.16,22.62c4.3,12.17,18.51,14.45,21.05,14.89
		c7.45,1.29,11.74-3.58,6.44-7.45s-11.17-6.16-9.88-10.02c1.39-4.18,6.35,0.18,12.31,2.76C52.92,55.73,60.05,56.07,66.37,55.01z"/>
	<path style="fill:#6D4B41;" d="M39.03,70.97c0,0,3.3-0.19,4.66-0.58c1.36-0.39,3.2-1.55,3.2-1.55S59.64,82.18,60.96,83.3
		c1.29,1.09,2.81-15.53,2.81-15.53s2.91,0.45,5.63,0.02c3.58-0.57,6.02-1.71,6.02-1.71S73.68,76.31,73,80.19
		c-0.43,2.49-0.58,9.41-0.58,9.41l-9.32,7.76l-7.09-4.76c0,0-0.02-1.87-1.07-3.14C51.68,85.52,39.03,70.97,39.03,70.97z"/>
	<path style="fill:#6D4B41;" d="M71.54,93.78l7.09-8.54c0,0,2.52,0.19,4.37,0.19c1.84,0,5.05-0.39,5.05-0.39s-5.82,7.86-8.93,11.74
		c-3.11,3.88-7.18,8.74-7.18,8.74l-3.88-11.26L71.54,93.78z"/>
	<path style="fill:#865B50;" d="M66.5,86.98c-2.9,0.26-10.48,5.63-10.48,5.63s0.39,9.12,0.1,14.27s-2.32,13.56-0.45,15.69
		c1.62,1.84,15.24,2.19,17.27,0.05c2.04-2.14,0.06-10.98,0.06-16.71c0-5.73-0.58-16.31-0.58-16.31S69.8,86.69,66.5,86.98z"/>
	
	<!--
	<text x="140" y="98" font-family="Fredoka One" font-weight="900" font-size="90">
		<tspan fill="#6D4B41">auto</tspan><tspan fill="#5B9821">fix</tspan><tspan fill="#444">.ci</tspan>
	</text>
	-->
	<g aria-label="autofix.ci">
		<g fill="#6d4b41">
			<path d="m 174.38,55.61 q 0.54,-5.04 7.11,-5.04 3.51,0 5.22,0.54 1.71,0.54 2.34,1.89 0.72,1.35 0.81,2.43 0.18,0.99 0.18,3.06 v 31.5 q 0,2.07 -0.18,3.15 -0.09,0.99 -0.72,2.34 -1.26,2.34 -6.21,2.34 -4.86,0 -6.57,-1.17 -1.62,-1.26 -1.89,-3.6 -3.33,4.77 -11.16,4.77 -7.74,0 -14.4,-7.11 -6.66,-7.11 -6.66,-16.47 0,-9.45 6.66,-16.47 6.75,-7.11 14.76,-7.11 3.06,0 5.58,1.08 2.52,1.08 3.51,2.07 0.99,0.9 1.62,1.8 z M 158,74.33 q 0,2.97 2.34,5.4 2.34,2.34 5.67,2.34 3.33,0 5.49,-2.43 2.25,-2.43 2.25,-5.31 0,-2.97 -2.16,-5.49 -2.07,-2.52 -5.67,-2.52 -3.51,0 -5.76,2.52 -2.16,2.52 -2.16,5.49 z"/>
			<path d="m 218.30006,97.82 q -9.09,0 -15.12,-6.84 -5.94,-6.93 -5.94,-16.83 V 58.4 q 0,-2.16 0.09,-3.15 0.18,-0.99 0.81,-2.34 1.26,-2.43 7.02,-2.43 6.3,0 7.38,3.42 0.54,1.44 0.54,4.59 v 15.75 q 0,3.69 2.07,5.76 2.16,2.07 5.67,2.07 3.6,0 5.76,-2.16 2.25,-2.16 2.25,-5.67 V 58.31 q 0,-2.07 0.09,-3.06 0.18,-1.08 0.9,-2.43 1.17,-2.34 6.93,-2.34 5.67,0 6.93,2.43 0.63,1.35 0.72,2.43 0.18,0.99 0.18,3.06 v 31.86 q 0,1.98 -0.18,3.06 -0.09,0.99 -0.81,2.25 -1.35,2.34 -6.93,2.34 -5.49,0 -6.75,-2.16 -0.9,-1.53 -0.9,-3.69 -0.36,0.63 -1.62,1.8 -1.26,1.17 -2.43,1.98 -3.06,1.98 -6.66,1.98 z"/>
			<path d="m 279.32015,66.5 -5.85,-0.36 v 12.42 q 0,2.43 0.72,3.51 0.81,1.08 2.88,1.08 2.16,0 3.24,0.18 1.17,0.09 2.43,0.81 2.07,1.17 2.07,6.03 0,5.67 -2.52,6.93 -1.35,0.63 -2.43,0.81 -0.99,0.09 -2.97,0.09 -9.36,0 -14.22,-4.23 -4.86,-4.23 -4.86,-14.31 V 66.14 q -1.71,0.27 -3.69,0.27 -1.98,0 -3.33,-1.53 -1.26,-1.53 -1.26,-5.22 0,-3.69 0.45,-5.31 0.45,-1.71 1.26,-2.43 1.44,-1.17 3.6,-1.17 l 2.97,0.36 v -9.27 q 0,-2.07 0.09,-3.06 0.18,-0.99 0.9,-2.16 1.17,-2.25 6.93,-2.25 6.12,0 7.29,3.33 0.45,1.44 0.45,4.59 v 8.82 q 3.96,-0.36 5.94,-0.36 2.07,0 3.06,0.18 1.08,0.09 2.43,0.81 2.34,1.17 2.34,6.93 0,5.67 -2.43,6.93 -1.35,0.63 -2.43,0.81 -0.99,0.09 -3.06,0.09 z"/>
			<path d="m 290.84009,74.33 q 0,-10.8 7.56,-17.82 7.56,-7.02 17.28,-7.02 9.72,0 17.19,7.02 7.47,6.93 7.47,17.73 0,7.47 -3.87,13.32 -3.87,5.76 -9.45,8.55 -5.49,2.7 -11.43,2.7 -5.94,0 -11.52,-2.88 -5.58,-2.97 -9.45,-8.64 -3.78,-5.76 -3.78,-12.96 z m 18.81,6.48 q 2.88,2.16 5.85,2.16 2.97,0 5.94,-2.25 2.97,-2.25 2.97,-6.66 0,-4.41 -2.79,-6.57 -2.79,-2.16 -6.03,-2.16 -3.24,0 -6.03,2.25 -2.79,2.25 -2.79,6.66 0,4.32 2.88,6.57 z"/>
		 </g>
		<g fill="#5b9821">
			<path d="m 373.91012,50.66 q 6.21,0 7.29,3.42 0.54,1.71 0.54,4.5 0,2.79 -0.63,4.5 -0.54,1.62 -1.8,2.34 -1.89,1.08 -5.49,1.08 l -5.76,-0.36 v 24.12 q 0,3.42 -0.9,5.13 -0.81,1.62 -2.61,2.16 -1.71,0.54 -4.5,0.54 -2.79,0 -4.5,-0.54 -1.62,-0.63 -2.34,-1.89 -0.72,-1.35 -0.9,-2.43 -0.09,-1.08 -0.09,-3.15 V 66.23 h -3.24 q -2.34,-0.18 -3.33,-1.08 -1.71,-1.71 -1.71,-6.57 0,-7.38 5.31,-7.38 h 2.97 v -4.77 q 0,-6.93 4.95,-12.51 4.95,-5.67 14.31,-5.67 2.07,0 3.06,0.18 1.08,0.09 2.43,0.81 2.43,1.17 2.43,6.93 0,4.32 -1.53,6.21 -1.26,1.44 -3.96,1.62 -0.81,0 -2.52,0 -3.33,0 -3.33,2.25 v 4.95 z m 13.14,7.83 q 0,-2.07 0.09,-3.06 0.18,-1.08 0.81,-2.43 1.26,-2.34 7.02,-2.34 4.32,0 6.12,1.53 1.53,1.26 1.62,3.87 0.09,0.9 0.09,2.61 v 31.5 q 0,2.07 -0.18,3.15 -0.09,0.99 -0.81,2.34 -1.17,2.34 -6.93,2.34 -5.67,0 -6.93,-2.43 -0.63,-1.35 -0.81,-2.34 -0.09,-0.99 -0.09,-3.15 z m 14.76,-16.65 q -0.63,1.26 -2.34,1.8 -1.71,0.54 -4.59,0.54 -2.79,0 -4.5,-0.54 -1.71,-0.54 -2.43,-1.89 -0.63,-1.35 -0.81,-2.34 -0.09,-1.08 -0.09,-3.15 0,-2.07 0.09,-3.06 0.18,-1.08 0.81,-2.34 1.26,-2.43 7.02,-2.43 5.67,0 6.84,2.43 0.72,1.35 0.81,2.43 0.18,0.99 0.18,3.06 0,2.07 -0.18,3.15 -0.09,0.99 -0.81,2.34 z"/>
			<path d="m 442.85009,74.24 9.99,10.08 q 3.24,3.24 3.24,5.58 0,2.25 -3.24,5.49 -3.24,3.15 -5.49,3.15 -2.25,0 -5.49,-3.24 l -9.9,-9.99 -9.99,9.99 q -3.24,3.24 -5.49,3.24 -2.16,0 -5.49,-3.15 -3.24,-3.24 -3.24,-5.49 0,-2.34 3.24,-5.58 l 9.99,-10.08 -9.99,-10.08 q -3.24,-3.24 -3.24,-5.49 0,-2.34 3.24,-5.58 3.33,-3.24 5.49,-3.24 2.25,0 5.49,3.24 l 9.99,10.08 9.9,-10.08 q 3.24,-3.24 5.49,-3.24 2.25,0 5.49,3.24 3.24,3.24 3.24,5.58 0,2.25 -3.24,5.49 z"/>
		</g>
		<g fill="#444444">
			<path d="m 474.98005,83.15 q 1.53,1.53 1.53,6.3 v 0.36 q 0,2.16 -0.18,3.24 -0.09,0.99 -0.9,2.43 -1.35,2.61 -6.84,2.61 -5.4,0 -7.2,-1.71 -1.71,-1.71 -1.71,-6.48 v -0.36 q 0,-2.07 0.09,-3.15 0.18,-1.08 0.9,-2.43 1.35,-2.7 6.75,-2.7 5.49,0 7.56,1.89 z"/>
			<path d="m 497.21001,74.33 q 0,3.78 2.52,5.94 2.52,2.07 5.31,2.07 2.88,0 5.31,-1.62 2.52,-1.71 4.05,-1.71 2.7,0 6.57,4.77 2.07,2.61 2.07,4.68 0,3.42 -4.95,6.39 -5.13,3.6 -12.6,3.6 -8.37,0 -16.11,-6.03 -3.69,-2.88 -6.03,-7.65 -2.34,-4.86 -2.34,-10.62 0,-5.85 2.34,-10.53 2.34,-4.77 6.03,-7.65 7.47,-5.94 15.93,-5.94 3.42,0 6.66,0.99 3.24,0.9 4.77,1.8 l 1.44,0.9 q 1.62,1.08 2.52,1.71 2.34,1.8 2.34,4.14 0,2.25 -1.89,5.13 -3.24,4.95 -6.21,4.95 -1.71,0 -4.86,-1.98 -1.62,-1.53 -4.68,-1.53 -2.97,0 -5.58,2.16 -2.61,2.16 -2.61,6.03 z"/>
			<path d="m 528.89001,58.49 q 0,-2.07 0.09,-3.06 0.18,-1.08 0.81,-2.43 1.26,-2.34 7.02,-2.34 4.32,0 6.12,1.53 1.53,1.26 1.62,3.87 0.09,0.9 0.09,2.61 v 31.5 q 0,2.07 -0.18,3.15 -0.09,0.99 -0.81,2.34 -1.17,2.34 -6.93,2.34 -5.67,0 -6.93,-2.43 -0.63,-1.35 -0.81,-2.34 -0.09,-0.99 -0.09,-3.15 z m 14.76,-16.65 q -0.63,1.26 -2.34,1.8 -1.71,0.54 -4.59,0.54 -2.79,0 -4.5,-0.54 -1.71,-0.54 -2.43,-1.89 -0.63,-1.35 -0.81,-2.34 -0.09,-1.08 -0.09,-3.15 0,-2.07 0.09,-3.06 0.18,-1.08 0.81,-2.34 1.26,-2.43 7.02,-2.43 5.67,0 6.84,2.43 0.72,1.35 0.81,2.43 0.18,0.99 0.18,3.06 0,2.07 -0.18,3.15 -0.09,0.99 -0.81,2.34 z"/>
		</g>
	</g>
</svg>